Coordinates
version=1
nRows=32
nColumns=22
inDegrees=yes

Units are S.I. units (second, meters, Newtons, ...)
If the header above contains a line with 'inDegrees', this indicates whether rotational values are in degrees (yes) or radians (no).

endheader
time	pelvis_tilt	pelvis_list	pelvis_rotation	pelvis_tx	pelvis_ty	pelvis_tz	hip_flexion_r	hip_adduction_r	hip_rotation_r	knee_angle_r	ankle_angle_r	subtalar_angle_r	hip_flexion_l	hip_adduction_l	hip_rotation_l	knee_angle_l	ankle_angle_l	subtalar_angle_l	lumbar_extension	lumbar_bending	lumbar_rotation
      1.30000000	     -5.83066431	     -5.22470483	      1.03397570	     -1.14678421	      0.94973835	      0.05401479	      7.54535493	      3.03858610	      0.19723250	    -13.15708452	     13.59168901	      1.67393374	     13.79336988	     -4.96778593	     -2.58895224	    -25.28457264	     16.49328779	     -4.61553087	     -3.04614823	      3.14745594	      0.09643808
      1.31000000	     -5.88764709	     -5.02737552	      1.07343468	     -1.14588997	      0.94943064	      0.05218937	      8.23133270	      2.74189674	      0.29662698	    -14.40604081	     13.94856311	      1.62954308	     13.70966336	     -4.62038735	     -2.54572372	    -25.15555619	     16.44250787	     -4.60777872	     -3.18292869	      2.89942847	      0.16405797
      1.32000000	     -5.90250659	     -4.80774642	      1.08539592	     -1.14491291	      0.94913545	      0.05040987	      9.02039616	      2.43817638	      0.36808770	    -15.92420648	     14.28307164	      1.50948921	     13.55907169	     -4.26068957	     -2.55244641	    -25.00532878	     16.42848975	     -4.59142998	     -3.37282990	      2.62543713	      0.22619678
      1.33000000	     -5.91728449	     -4.57647619	      1.06882867	     -1.14391088	      0.94878361	      0.04872060	      9.97197189	      2.14258655	      0.41209517	    -17.72554631	     14.54581977	      1.28612906	     13.40735424	     -3.90317747	     -2.60874325	    -24.86214997	     16.43175296	     -4.57053849	     -3.57359038	      2.33301295	      0.28320279
      1.34000000	     -5.85874100	     -4.31122352	      1.04211226	     -1.14282807	      0.94848881	      0.04712403	     10.98144401	      1.83224086	      0.41805847	    -19.76871250	     14.75186040	      1.00670603	     13.16605733	     -3.52144757	     -2.69904686	    -24.71392526	     16.44076997	     -4.53909637	     -3.86691490	      1.99322772	      0.30236438
      1.35000000	     -5.76249324	     -4.03244878	      1.00107817	     -1.14168755	      0.94819152	      0.04562468	     12.08401420	      1.52288586	      0.36261713	    -22.03441988	     14.85995824	      0.66659871	     12.88337130	     -3.13723129	     -2.82306803	    -24.57374409	     16.46922600	     -4.51896314	     -4.21306747	      1.63729985	      0.28286545
      1.36000000	     -5.56805839	     -3.72969378	      0.95874432	     -1.14041897	      0.94800815	      0.04421969	     13.17682945	      1.19860181	      0.23549709	    -24.45269919	     14.89955186	      0.40296989	     12.47085354	     -2.73262488	     -2.94935413	    -24.40697592	     16.50729293	     -4.50223225	     -4.67470034	      1.25083487	      0.20472893
      1.37000000	     -5.36428198	     -3.44573715	      0.90161864	     -1.13906928	      0.94781098	      0.04295676	     14.34660725	      0.90456642	      0.04027253	    -26.98103706	     14.81448063	      0.10696079	     12.04702898	     -2.36119831	     -3.10387999	    -24.24733632	     16.56196179	     -4.51034985	     -5.14853371	      0.88278734	      0.08606488
      1.38000000	     -5.12699670	     -3.18980483	      0.84442272	     -1.13760716	      0.94766734	      0.04179918	     15.52674497	      0.64273882	     -0.23202132	    -29.53255890	     14.63160070	     -0.18789988	     11.58148659	     -2.02612670	     -3.25965568	    -24.08777887	     16.63040145	     -4.54107139	     -5.65855763	      0.55100557	     -0.08718952
      1.39000000	     -4.89806542	     -2.98783668	      0.79089011	     -1.13603885	      0.94753799	      0.04076054	     16.73384748	      0.43955943	     -0.58175439	    -32.03274119	     14.35796954	     -0.58652699	     11.13327389	     -1.75977820	     -3.43115143	    -23.95043438	     16.70841400	     -4.63523287	     -6.15249732	      0.28475551	     -0.32012317
      1.40000000	     -4.58193911	     -2.81923963	      0.75844726	     -1.13427122	      0.94763795	      0.03977537	     17.81289684	      0.26320385	     -1.00830217	    -34.37878595	     14.06638648	     -0.73792494	     10.54545344	     -1.52053973	     -3.53785506	    -23.74798553	     16.79092242	     -4.66819586	     -6.73394094	      0.06467815	     -0.60716749
      1.41000000	     -4.29008404	     -2.71831057	      0.74752618	     -1.13236999	      0.94779379	      0.03888069	     18.87543282	      0.15436296	     -1.50848196	    -36.52264480	     13.77284768	     -0.87890511	      9.98255021	     -1.35986767	     -3.63316161	    -23.54817704	     16.86484996	     -4.72534886	     -7.27120726	     -0.07313324	     -0.94900555
      1.42000000	     -4.02214475	     -2.68930088	      0.77599689	     -1.13030137	      0.94802706	      0.03802398	     19.88991676	      0.10768588	     -2.10123840	    -38.39026718	     13.51560064	     -1.01956006	      9.43701146	     -1.27838336	     -3.69811324	    -23.34033913	     16.92404142	     -4.81047682	     -7.75669172	     -0.11681300	     -1.35864498
      1.43000000	     -3.76309033	     -2.72406025	      0.83747500	     -1.12806490	      0.94838512	      0.03722954	     20.82078327	      0.12324353	     -2.76120577	    -39.92638170	     13.28495123	     -1.08585959	      8.87373546	     -1.26418808	     -3.70408652	    -23.09178328	     16.99072438	     -4.84582030	     -8.20925747	     -0.08330432	     -1.79492220
      1.44000000	     -3.55012924	     -2.81312823	      0.94743961	     -1.12567868	      0.94878536	      0.03645213	     21.69874252	      0.17638526	     -3.51971805	    -41.10215190	     13.12677241	     -1.14297553	      8.35162758	     -1.31056998	     -3.67234601	    -22.82940871	     17.03717193	     -4.87779763	     -8.58471007	      0.02118986	     -2.29131747
      1.45000000	     -3.38196650	     -2.94746253	      1.08879553	     -1.12315033	      0.94921878	      0.03570860	     22.51917167	      0.26511856	     -4.34931391	    -41.90151204	     13.01252541	     -1.18478414	      7.86512592	     -1.40803075	     -3.60435185	    -22.55006395	     17.07313699	     -4.89625015	     -8.88566568	      0.18306399	     -2.81161712
      1.46000000	     -3.25851792	     -3.11354244	      1.24961035	     -1.12047524	      0.94966108	      0.03500861	     23.28055415	      0.38058577	     -5.22885223	    -42.32500579	     12.93139581	     -1.21206677	      7.41118130	     -1.54492941	     -3.52027917	    -22.25043637	     17.09938761	     -4.90038253	     -9.11387986	      0.38311513	     -3.33150447
      1.47000000	     -3.17300192	     -3.29483698	      1.40828004	     -1.11763790	      0.95009610	      0.03435606	     23.97836052	      0.51364875	     -6.12655291	    -42.38721866	     12.85809608	     -1.22176878	      6.97344486	     -1.70132141	     -3.42882818	    -21.92333963	     17.11973108	     -4.88973425	     -9.27754635	      0.60350533	     -3.83640204
      1.48000000	     -3.11724044	     -3.48095895	      1.55512070	     -1.11463371	      0.95050717	      0.03377262	     24.60941621	      0.66571019	     -7.00894550	    -42.11611472	     12.77948415	     -1.21394068	      6.54083610	     -1.86877317	     -3.34827468	    -21.56713686	     17.13629144	     -4.86909329	     -9.38929712	      0.82678341	     -4.30929343
      1.49000000	     -3.08164690	     -3.66435793	      1.67961535	     -1.11147182	      0.95087400	      0.03326685	     25.17854427	      0.83576699	     -7.85416690	    -41.55899467	     12.67499215	     -1.18810630	      6.10703567	     -2.04011080	     -3.29319548	    -21.19180254	     17.14343221	     -4.84241598	     -9.46503086	      1.04424051	     -4.74101781
      1.50000000	     -3.06352849	     -3.83790429	      1.77855455	     -1.10813661	      0.95118358	      0.03284375	     25.67669140	      1.02330076	     -8.64546169	    -40.73042636	     12.54392583	     -1.14559572	      5.66804848	     -2.20474512	     -3.25234060	    -20.80057636	     17.15425529	     -4.81482870	     -9.50737934	      1.24386199	     -5.10908026
      1.51000000	     -3.04757433	     -3.99771775	      1.85060485	     -1.10465243	      0.95141801	      0.03251827	     26.11573892	      1.23314371	     -9.35193651	    -39.70586299	     12.37862969	     -1.08850798	      5.21130652	     -2.36016156	     -3.23377958	    -20.39840056	     17.18588621	     -4.79126864	     -9.54112070	      1.42318664	     -5.45178535
      1.52000000	     -3.00702597	     -4.14169770	      1.90870368	     -1.10099541	      0.95160195	      0.03223841	     26.46291218	      1.45186826	     -9.99545246	    -38.50737633	     12.18070506	     -1.01566256	      4.71489796	     -2.50379422	     -3.24333046	    -19.99933276	     17.26044555	     -4.77170824	     -9.59445851	      1.59003641	     -5.78807164
      1.53000000	     -2.97684146	     -4.27232839	      1.93713996	     -1.09720201	      0.95167306	      0.03206596	     26.77956396	      1.68711190	    -10.57045826	    -37.19091475	     11.92543704	     -0.94200135	      4.22660609	     -2.63925888	     -3.27947823	    -19.61972219	     17.32349129	     -4.75099888	     -9.63306088	      1.73223623	     -6.06326548
      1.54000000	     -2.94326684	     -4.39033860	      1.94972242	     -1.09326601	      0.95163792	      0.03197557	     27.05364376	      1.93210936	    -11.09429163	    -35.78345873	     11.63273583	     -0.87470389	      3.73821533	     -2.76652850	     -3.32945036	    -19.27029640	     17.40699694	     -4.73347778	     -9.67159441	      1.85796094	     -6.31602872
      1.55000000	     -2.89240960	     -4.49498775	      1.94703109	     -1.08917660	      0.95150938	      0.03193859	     27.27546021	      2.17813128	    -11.58821443	    -34.31293755	     11.33725527	     -0.81849702	      3.23009118	     -2.88014358	     -3.37970483	    -18.94582685	     17.51651239	     -4.70710926	     -9.72446817	      1.97167094	     -6.53668258
      1.56000000	     -2.86305577	     -4.58489191	      1.93940874	     -1.08498724	      0.95121545	      0.03200078	     27.49836755	      2.42602969	    -12.03502424	    -32.80903719	     11.03147287	     -0.76968329	      2.77483021	     -2.98813547	     -3.45187780	    -18.69029170	     17.65921732	     -4.69445704	     -9.75349960	      2.06198824	     -6.76920574
      1.57000000	     -2.81540910	     -4.65604697	      1.92051010	     -1.08065609	      0.95082394	      0.03211511	     27.67057768	      2.66541385	    -12.45251900	    -31.27738943	     10.79064452	     -0.73748812	      2.29794878	     -3.07506152	     -3.50183799	    -18.45641723	     17.82835444	     -4.65497591	     -9.79836468	      2.13579244	     -6.96498158
      1.58000000	     -2.80655742	     -4.71534877	      1.89811084	     -1.07626231	      0.95023306	      0.03231236	     27.86490833	      2.90561086	    -12.80712327	    -29.74098373	     10.57222246	     -0.70622139	      1.90941565	     -3.15902823	     -3.57571395	    -18.31792284	     18.03552154	     -4.64523191	     -9.80141537	      2.19530734	     -7.17060118
      1.59000000	     -2.79219953	     -4.75553837	      1.87236892	     -1.07175401	      0.94953010	      0.03258355	     28.02488307	      3.13827253	    -13.09721521	    -28.20933030	     10.43629817	     -0.69458723	      1.52382109	     -3.22620135	     -3.63295998	    -18.21292153	     18.27120322	     -4.61600222	     -9.81028595	      2.23060349	     -7.35714341
      1.60000000	     -2.78988954	     -4.78350017	      1.84079923	     -1.06715667	      0.94869698	      0.03291054	     28.17319301	      3.36749960	    -13.30670840	    -26.69586958	     10.34891534	     -0.70264083	      1.17311095	     -3.28399460	     -3.68755016	    -18.16372134	     18.53441526	     -4.57854766	     -9.80589743	      2.25814923	     -7.52810697
      1.61000000	     -2.80080459	     -4.80263231	      1.80531659	     -1.06246926	      0.94774857	      0.03327850	     28.31682824	      3.58811972	    -13.44499889	    -25.22429547	     10.28938293	     -0.73250352	      0.85515785	     -3.33570242	     -3.74392616	    -18.16235273	     18.82017757	     -4.53703104	     -9.78692378	      2.28350754	     -7.68723756
